# xmcd
#
# Track frame offsets:
#	150
#	12995
#	23418
#	31109
#	44853
#	61972
#	75266
#	86866
#	95853
#	107155
#	118138
#	133434
#	145978
#	157195
#	170084
#	180396
#	191147
#	204770
#	216923
#	233179
#	248523
#	263638
#
# Disc length: 3675 seconds
#
# Revision: 0
# Processed by: cddbd v1.5.2PL0 Copyright (c) Steve Scherf et al.
# Submitted via: EasyCDDAExtractor 16.0.6.1
#
DISCID=3a0e5916
DTITLE=Various Artist - Country Sunrise [Disc 08]
DYEAR=2006
DGENRE=Country
TTITLE0=Bobby Bare - Tender Years
TTITLE1=Patsy Cline - Pick Me Up On Your Way Down
TTITLE2=Roy Drusky - Second Hand Rose
TTITLE3=Ernest Ashworth - Each Moment
TTITLE4=Deborah Allen - I Hurt For You
TTITLE5=T. Graham Brown - Brilliant Conversationalist
TTITLE6=Johnny Cash - Big Riiver
TTITLE7=Jerry Lee Lewis - Invitation To Your Party
TTITLE8=Henson Cargill - On The Road Again
TTITLE9=David Houston - You're My Best Friend
TTITLE10=Cal Smith - It's Time To Pay The Fiddler
TTITLE11=Bill Anderson - I Love You Drops
TTITLE12=Conway Twitty - As Soon As I Hang Up The Phone
TTITLE13=Donna Fargo - Ya'll Come Back Saloon
TTITLE14=Faron Young - Live Fast Love Hard Die Young
TTITLE15=Jody Miller - Darling You Can Always Come Back Home
TTITLE16=The Kendalls - Thank God For The Radio
TTITLE17=Susan Raye - La International Airport
TTITLE18=Moe Bandy - Coolwater
TTITLE19=Frankie Laine - Green Green Grass Of Home
TTITLE20=Roy Clark - Yesterday When I Was Young
TTITLE21=Johnny Peacock - Take This Job And Shove It
EXTD=
EXTT0=
EXTT1=
EXTT2=
EXTT3=
EXTT4=
EXTT5=
EXTT6=
EXTT7=
EXTT8=
EXTT9=
EXTT10=
EXTT11=
EXTT12=
EXTT13=
EXTT14=
EXTT15=
EXTT16=
EXTT17=
EXTT18=
EXTT19=
EXTT20=
EXTT21=
PLAYORDER=
